<svg width="1113" height="788" viewBox="0 0 1113 788" fill="none" xmlns="http://www.w3.org/2000/svg">
<rect width="183" height="183" rx="17" fill="#F78B0C"/>
<rect x="620" width="183" height="183" rx="17" fill="#F78B0C"/>
<rect x="310" y="37" width="183" height="183" rx="17" fill="#1A1A1A"/>
<rect x="930" y="37" width="183" height="183" rx="17" fill="#1A1A1A"/>
<rect x="91" y="381" width="138" height="138" rx="17" fill="#1A1A1A"/>
<rect x="278" y="693" width="95" height="95" rx="17" fill="#1A1A1A"/>
<rect x="598" y="325" width="138" height="138" rx="17" fill="#1A1A1A"/>
<rect x="373" y="490" width="87" height="87" rx="17" fill="#1A1A1A"/>
<rect x="975" y="508" width="138" height="138" rx="17" fill="#1A1A1A"/>
<rect x="332" y="312" width="138" height="138" rx="17" fill="#F68B0C"/>
<rect x="515" y="577" width="105" height="105" rx="17" fill="#F68B0C"/>
<rect y="609" width="112" height="112" rx="17" fill="#F68B0C"/>
<rect x="736" y="676" width="112" height="112" rx="17" fill="#F68B0C"/>
<rect x="861" y="290" width="138" height="138" rx="17" fill="#F68B0C"/>
</svg>
