<svg width="24" height="24" viewBox="0 0 24 24" fill="none" xmlns="http://www.w3.org/2000/svg">
<path d="M11.9381 5.86998C8.55118 5.86998 5.81928 8.55909 5.81928 11.893C5.81928 15.2268 8.55118 17.9159 11.9381 17.9159C15.325 17.9159 18.0569 15.2268 18.0569 11.893C18.0569 8.55909 15.325 5.86998 11.9381 5.86998ZM11.9381 15.8087C9.74939 15.8087 7.96007 14.0526 7.96007 11.893C7.96007 9.73329 9.74406 7.97724 11.9381 7.97724C14.1322 7.97724 15.9161 9.73329 15.9161 11.893C15.9161 14.0526 14.1268 15.8087 11.9381 15.8087ZM19.7344 5.62361C19.7344 6.40466 19.0954 7.02845 18.3072 7.02845C17.5138 7.02845 16.88 6.39941 16.88 5.62361C16.88 4.8478 17.5191 4.21877 18.3072 4.21877C19.0954 4.21877 19.7344 4.8478 19.7344 5.62361ZM23.787 7.04941C23.6965 5.16756 23.2598 3.50062 21.8592 2.12724C20.464 0.753849 18.7705 0.32401 16.8587 0.229655C14.8884 0.119575 8.98254 0.119575 7.01216 0.229655C5.10568 0.318768 3.41222 0.748607 2.01165 2.12199C0.611084 3.49538 0.179731 5.16232 0.0838743 7.04417C-0.0279581 8.98369 -0.0279581 14.797 0.0838743 16.7365C0.174405 18.6184 0.611084 20.2853 2.01165 21.6587C3.41222 23.0321 5.10036 23.4619 7.01216 23.5563C8.98254 23.6663 14.8884 23.6663 16.8587 23.5563C18.7705 23.4672 20.464 23.0373 21.8592 21.6587C23.2545 20.2853 23.6912 18.6184 23.787 16.7365C23.8988 14.797 23.8988 8.98893 23.787 7.04941ZM21.2415 18.8176C20.8261 19.845 20.022 20.6365 18.9729 21.0506C17.4019 21.6639 13.6742 21.5224 11.9381 21.5224C10.202 21.5224 6.46897 21.6587 4.90332 21.0506C3.85955 20.6418 3.05542 19.8502 2.63472 18.8176C2.01165 17.2712 2.15544 13.6018 2.15544 11.893C2.15544 10.1841 2.01698 6.50949 2.63472 4.96837C3.0501 3.94095 3.85422 3.14941 4.90332 2.7353C6.4743 2.12199 10.202 2.26353 11.9381 2.26353C13.6742 2.26353 17.4072 2.12724 18.9729 2.7353C20.0167 3.14417 20.8208 3.9357 21.2415 4.96837C21.8646 6.51474 21.7208 10.1841 21.7208 11.893C21.7208 13.6018 21.8646 17.2764 21.2415 18.8176Z" fill="white"/>
</svg>
