<svg width="1919" height="1231" viewBox="0 0 1919 1231" fill="none" xmlns="http://www.w3.org/2000/svg">
<path d="M1694.5 0.5C1707.74 16.8405 1751.71 53.3128 1817.92 62.4536C1900.69 73.8796 1914.32 146.968 1918.5 159.5" stroke="#D85E00" stroke-linecap="round"/>
<path d="M1582.5 0.5C1602.42 28.6304 1667.06 88.3252 1766.68 104.061C1891.2 123.731 1912.21 250.426 1918.5 272" stroke="#D85E00" stroke-linecap="round"/>
<path d="M1442.5 0.5C1470.69 40.3169 1513.53 85.6984 1744.14 134.984C1887.88 165.704 1732.25 272.349 1918.5 386" stroke="#D85E00" stroke-linecap="round"/>
<path d="M0.5 952C19.3711 980.929 80.212 1042.74 174.607 1058.92C292.601 1079.15 313.041 1207.81 319 1230" stroke="#D85E00" stroke-linecap="round"/>
<path d="M0.5 1028.5C14.2405 1049.56 90.3353 1087.82 145.734 1098.78C283.581 1126.05 228.161 1213.85 232.5 1230" stroke="#D85E00" stroke-linecap="round"/>
<path d="M0.5 901C22.8213 935.085 59.313 972.583 170.966 991.651C310.533 1015.49 375.951 1203.86 383 1230" stroke="#D85E00" stroke-linecap="round"/>
</svg>
