<svg width="1919" height="945" viewBox="0 0 1919 945" fill="none" xmlns="http://www.w3.org/2000/svg">
<path d="M1694.5 0.5C1707.74 16.8405 1751.71 53.3128 1817.92 62.4536C1900.69 73.8796 1914.32 146.968 1918.5 159.5" stroke="#D85E00" stroke-linecap="round"/>
<path d="M0.5 666.5C19.3711 695.429 80.212 757.241 174.607 773.424C292.601 793.653 313.041 922.314 319 944.5" stroke="#D85E00" stroke-linecap="round"/>
<path d="M0.5 743C14.2405 764.064 90.3353 802.319 145.734 813.28C283.581 840.553 228.161 928.346 232.5 944.5" stroke="#D85E00" stroke-linecap="round"/>
<path d="M0.5 615.5C22.8213 649.585 59.313 687.083 170.966 706.151C310.533 729.985 375.951 918.359 383 944.5" stroke="#D85E00" stroke-linecap="round"/>
<path d="M1582.5 0.5C1602.42 28.6304 1667.06 88.3252 1766.68 104.061C1891.2 123.731 1912.21 250.426 1918.5 272" stroke="#D85E00" stroke-linecap="round"/>
<path d="M1442.5 0.5C1470.69 40.3169 1513.53 85.6984 1744.14 134.984C1887.88 165.704 1732.25 272.349 1918.5 386" stroke="#D85E00" stroke-linecap="round"/>
</svg>
