<svg width="27" height="26" viewBox="0 0 27 26" fill="none" xmlns="http://www.w3.org/2000/svg">
<path d="M13.539 0C6.10294 0 0.078125 5.81855 0.078125 13C0.078125 20.1815 6.10294 26 13.539 26C20.975 26 26.9998 20.1815 26.9998 13C26.9998 5.81855 20.975 0 13.539 0ZM20.15 8.90605L17.9409 18.9601C17.778 19.673 17.3384 19.846 16.7251 19.5105L13.3599 17.1149L11.737 18.6246C11.5578 18.7976 11.4059 18.9444 11.0585 18.9444L11.2973 15.6367L17.5338 10.1956C17.8052 9.96492 17.4741 9.83387 17.1159 10.0645L9.40844 14.7508L6.08666 13.7496C5.36476 13.5294 5.34848 13.0524 6.23863 12.7169L19.2164 7.88387C19.8189 7.67419 20.3454 8.0254 20.15 8.90605Z" fill="white"/>
</svg>
