<svg width="28" height="16" viewBox="0 0 28 16" fill="none" xmlns="http://www.w3.org/2000/svg">
<path d="M26.584 1.43217C26.7692 0.861384 26.584 0.441284 25.6928 0.441284H22.7438C21.9928 0.441284 21.6473 0.802022 21.4621 1.20386C21.4621 1.20386 19.9601 4.54183 17.8372 6.70626C17.1513 7.33184 16.8359 7.53276 16.4604 7.53276C16.2751 7.53276 15.9897 7.33184 15.9897 6.76105V1.43217C15.9897 0.747227 15.7794 0.441284 15.1586 0.441284H10.5224C10.0517 0.441284 9.77136 0.760926 9.77136 1.05774C9.77136 1.70615 10.8328 1.85684 10.9429 3.68336V7.64692C10.9429 8.51452 10.7727 8.67434 10.3972 8.67434C9.39585 8.67434 6.96258 5.32267 5.52064 1.48697C5.23025 0.742661 4.94486 0.441284 4.18885 0.441284H1.23988C0.398745 0.441284 0.228516 0.802022 0.228516 1.20386C0.228516 1.9162 1.22986 5.45509 4.88979 10.131C7.32807 13.3228 10.7627 15.0535 13.8869 15.0535C15.7644 15.0535 15.9947 14.6699 15.9947 14.0078C15.9947 10.9575 15.8245 10.6698 16.7658 10.6698C17.2014 10.6698 17.9524 10.8707 19.7047 12.4096C21.7074 14.2361 22.0379 15.0535 23.1594 15.0535H26.1084C26.9495 15.0535 27.3751 14.6699 27.1297 13.9119C26.569 12.3183 22.7789 9.03964 22.6086 8.82046C22.1731 8.30903 22.2982 8.08072 22.6086 7.62409C22.6136 7.61952 26.2135 2.99842 26.584 1.43217Z" fill="white"/>
</svg>
